PathFileType	4	(X/Y/Z)	Patient4_TMGait_0pt6_02_right_32.trc.trc
DataRate	CameraRate	NumFrames	NumMarkers	Units	OrigDataRate	OrigDataStartFrame	OrigNumFrames
82.840236686391	82.840236686391	4	33	mm	82.840236686391	124	       141
Frame#	Time	Sacral			L.Shoulder			Chest			R.Shoulder			Neck			R.ASIS			L.ASIS			R.Thigh.Superior			R.Thigh.Lateral			R.Thigh.Inferior			R.Patella			L.Thigh.Superior			L.Thigh.Lateral			L.Thigh.Inferior			L.Patella			L.Shank.Superior			L.Shank.Lateral			L.Shank.Inferior			R.Shank.Superior			R.Shank.Lateral			R.Shank.Inferior			R.Heel			R.Midfoot.Superior			R.Midfoot.Lateral			R.Toe			L.Heel			L.Midfoot.Lateral			L.Midfoot.Superior			L.Toe			L.Elbow			L.Wrist			R.Elbow			R.Wrist			
		X1	Y1	Z1	X2	Y2	Z2	X3	Y3	Z3	X4	Y4	Z4	X5	Y5	Z5	X6	Y6	Z6	X7	Y7	Z7	X8	Y8	Z8	X9	Y9	Z9	X10	Y10	Z10	X11	Y11	Z11	X12	Y12	Z12	X13	Y13	Z13	X14	Y14	Z14	X15	Y15	Z15	X16	Y16	Z16	X17	Y17	Z17	X18	Y18	Z18	X19	Y19	Z19	X20	Y20	Z20	X21	Y21	Z21	X22	Y22	Z22	X23	Y23	Z23	X24	Y24	Z24	X25	Y25	Z25	X26	Y26	Z26	X27	Y27	Z27	X28	Y28	Z28	X29	Y29	Z29	X30	Y30	Z30	X31	Y31	Z31	X32	Y32	Z32	X33	Y33	Z33	

124	39.984785714286	791.386737068601	1000.712635450998	450.891340561293	996.162235469124	1422.982151290501	276.833572569120	1094.331380662798	1342.103912857159	434.434937294049	1016.925952122094	1421.692181827569	608.135558483845	1000.582499290781	1479.624008078061	427.610547963037	1017.457873782925	927.262112366747	567.309015690222	989.993360621348	947.512006904998	294.264360155102	1087.045559902512	753.053336601331	540.290907288374	1034.132764719697	632.186579646631	609.880660627659	1123.071280216458	595.587605956787	530.223927809179	1150.292908984397	511.038749410574	542.601661675875	1005.347978265791	723.036646022420	320.401220150796	887.008975696092	630.449576235374	259.162066152209	945.464937562359	535.261745122648	322.594368122107	930.305371615478	466.571024458018	331.981992859330	892.989018244953	402.033648951342	323.429476977077	785.871366044424	303.781661363564	271.806784414470	816.341422063461	185.916240207863	342.985438907632	1133.373375836987	420.865677795501	553.500246700148	1076.878027681332	307.732553460683	614.604006615879	1143.721217952534	221.217063825673	561.107825645687	1046.291726440708	41.124796557406	532.582494348058	1212.047579901688	107.792729882846	568.974784656112	1131.387412463512	37.820795728481	605.151316094633	1335.867397654102	65.277973335361	592.059306712525	670.792828152115	39.047700106353	383.848908092712	743.190293783530	35.118738399575	302.284668722077	827.932077015546	95.123373008334	327.921294634970	955.330624714042	40.915505770202	295.603902745134	975.706439976483	1087.238365291778	129.792055292266	1225.230712314854	1092.580926263053	166.282722883529	860.201307438365	1123.514070454264	736.291553245614	828.502553031626	862.441095012096	740.278536272494	
125	39.996857142857	793.076866795054	999.372552694986	453.206817425142	996.523333982838	1421.778488749741	278.992094989923	1095.223989020883	1341.422609977447	436.586071071240	1017.621372546192	1420.810853265856	610.280298914245	1001.101607427164	1478.675578577285	429.698078341058	1019.317332045877	926.095869673091	569.899474592620	991.493139022944	946.277030044385	296.894560763929	1088.455873367380	750.608678023700	543.376771194040	1032.878048309646	629.954625837682	610.658700863977	1122.186917000072	593.261224129730	531.611732253344	1147.313493847494	508.193064429748	542.682198605007	1007.706593125579	721.693780820755	322.789250231426	889.575528384655	628.793462811949	261.576214306427	948.420492998895	533.460662933309	324.838250104909	933.249224085999	463.695327468889	333.702663282439	893.710003338360	399.720517089716	325.194587148352	784.228873257830	304.256903370580	273.204706067869	811.796816682118	185.399925749982	343.580179163531	1130.413169285281	417.884063444816	553.270475716192	1073.100111102338	305.031929856037	613.974163150710	1138.793209811654	218.224087954406	559.853563274275	1038.965116076810	40.573013901601	530.998425010933	1205.557486273950	104.259170831007	566.801916045611	1123.740856457185	36.738105527997	603.883887834288	1328.858985528720	60.034934304082	590.636157123346	663.590970330114	40.607407361430	383.719736557026	736.052479354291	35.832217867576	302.309263160501	821.384592535267	95.254199675045	327.852895416747	948.223786070393	40.437509289450	295.496900944834	976.783245893571	1085.683601738748	132.124087022919	1226.247567817897	1094.427736053410	168.361587150437	862.855478861628	1121.429805407421	738.343171607552	832.726365925294	860.060160714703	741.656694179579	
126	40.008928571429	794.587549674049	998.357248741678	455.586045325471	997.005230294361	1420.828927337527	281.200767626634	1096.175003624587	1340.911224998907	438.791916569708	1018.453178700745	1420.163616599159	612.489816852870	1001.805175909304	1477.997310118282	431.849262226769	1021.047251923808	925.351617319086	572.597684325305	992.860851316827	945.465446176190	299.633450930969	1090.109320363607	748.954877496021	546.260310427588	1032.354009957783	628.514666146090	611.430089390665	1121.864123355472	591.737640058896	532.831386987205	1145.136362302055	506.033022188178	542.719932263277	1010.494774349764	720.726161956109	325.284981089284	893.007225490682	627.090146133530	264.167263106182	952.753251784382	531.771808029163	327.156468085527	937.704514072673	460.740154242938	335.344377070024	895.622527158268	397.416104207402	326.946959856520	783.525812402244	305.190852988180	274.672990209545	807.891008907577	185.272527069581	344.083293616479	1127.994599389391	415.550735514994	553.009299009093	1069.872775744450	303.182666640750	613.769877507385	1133.814660230307	215.816569335735	558.758268656767	1031.000906430814	40.508057569535	529.916360343293	1198.480433243864	101.374439139048	564.991438390497	1115.547599780104	36.169927238492	603.045203159424	1321.298596981302	55.529104446349	589.504984819735	656.590199856662	43.241527506632	383.526420130801	729.047038972263	37.144171218829	302.298208841607	815.223099246379	95.571297854857	327.661735174781	941.131001842050	39.900971895914	295.382029356285	977.403213419409	1084.229549884179	134.823648856188	1226.931807430269	1095.142901081237	170.387360242151	866.350147253750	1119.016519401640	740.362025989344	838.200449266102	857.321754005340	743.042952950215	
127	40.021000000000	795.899911996682	997.710029661277	458.028251938061	997.616957945339	1420.192921616533	283.433087514220	1097.159193107948	1340.596390238920	441.021788195551	1019.418986556425	1419.798096528049	614.729610072718	1002.687615397940	1477.626441902574	434.034561774752	1022.629660588185	925.073809029171	575.377653689475	994.079172430347	945.121265085116	302.454896211602	1091.872585636275	748.066030199871	548.866786039264	1032.506754447038	627.850913795922	612.292267334040	1121.947237435066	590.923559476673	533.909810919219	1143.625384193333	504.522849038335	542.844878715471	1013.661965286254	720.206046777933	327.862004461481	897.311901211814	625.412650475148	266.860893235597	958.489379974397	530.284676351977	329.464439500505	943.689576246623	457.820695464735	336.804516605328	898.790083739335	395.227894191355	328.592994308397	783.851616338570	306.698979515275	276.154973944718	804.741953146976	185.672703231969	344.449141410205	1126.025744035117	413.847073685356	552.841982964185	1067.158041086160	302.099971938349	614.036625005909	1128.910209553606	213.993273075627	557.913678263030	1022.818299156961	40.743012589254	529.321813698278	1191.135772963011	99.211087370075	563.644967296595	1107.225715883586	35.983959793287	602.615118425499	1313.540450073305	51.984545686338	588.709490141738	649.917148834201	47.212559716583	383.272817347453	722.249700663712	39.243236978498	302.248605041984	809.554058235622	96.141141217405	327.335375705435	934.051347905515	39.311887937935	295.276346747293	977.543227248207	1082.959996636708	137.889001229271	1227.285009874348	1094.720813441006	172.377144142240	870.652885099927	1116.384913055178	742.342408976759	844.926151247147	854.348139431083	744.433559084751	
